<svg width="136" height="32" viewBox="0 0 136 32" fill="none" xmlns="http://www.w3.org/2000/svg">
<path d="M9.48808 24.384C8.29341 24.384 7.24808 24.16 6.35208 23.712C5.45608 23.264 4.73074 22.6346 4.17608 21.824L3.72808 24H0.0800781V0.959961H4.17608V10.4C4.68808 9.69596 5.36008 9.07729 6.19208 8.54396C7.04541 8.01063 8.14408 7.74396 9.48808 7.74396C10.9814 7.74396 12.3147 8.10663 13.4881 8.83196C14.6614 9.55729 15.5894 10.5493 16.2721 11.808C16.9547 13.0666 17.2961 14.496 17.2961 16.096C17.2961 17.696 16.9547 19.1253 16.2721 20.384C15.5894 21.6213 14.6614 22.6026 13.4881 23.328C12.3147 24.032 10.9814 24.384 9.48808 24.384ZM8.62408 20.8C9.92541 20.8 11.0027 20.3626 11.8561 19.488C12.7094 18.6133 13.1361 17.4826 13.1361 16.096C13.1361 14.7093 12.7094 13.568 11.8561 12.672C11.0027 11.776 9.92541 11.328 8.62408 11.328C7.30141 11.328 6.21341 11.776 5.36008 12.672C4.52808 13.5466 4.11208 14.6773 4.11208 16.064C4.11208 17.4506 4.52808 18.592 5.36008 19.488C6.21341 20.3626 7.30141 20.8 8.62408 20.8Z" fill="#5BB5A2"/>
<path d="M25.4671 24.384C24.1017 24.384 22.9817 24.1706 22.1071 23.744C21.2324 23.296 20.5817 22.7093 20.1551 21.984C19.7284 21.2586 19.5151 20.4586 19.5151 19.584C19.5151 18.112 20.0911 16.9173 21.2431 16C22.3951 15.0826 24.1231 14.624 26.4271 14.624H30.4591V14.24C30.4591 13.152 30.1497 12.352 29.5311 11.84C28.9124 11.328 28.1444 11.072 27.2271 11.072C26.3951 11.072 25.6697 11.2746 25.0511 11.68C24.4324 12.064 24.0484 12.64 23.8991 13.408H19.8991C20.0057 12.256 20.3897 11.2533 21.0511 10.4C21.7337 9.54663 22.6084 8.89596 23.6751 8.44796C24.7417 7.97863 25.9364 7.74396 27.2591 7.74396C29.5204 7.74396 31.3017 8.30929 32.6031 9.43996C33.9044 10.5706 34.5551 12.1706 34.5551 14.24V24H31.0671L30.6831 21.44C30.2137 22.2933 29.5524 22.9973 28.6991 23.552C27.8671 24.1066 26.7897 24.384 25.4671 24.384ZM26.3951 21.184C27.5684 21.184 28.4751 20.8 29.1151 20.032C29.7764 19.264 30.1924 18.3146 30.3631 17.184H26.8751C25.7871 17.184 25.0084 17.3866 24.5391 17.792C24.0697 18.176 23.8351 18.656 23.8351 19.232C23.8351 19.8506 24.0697 20.3306 24.5391 20.672C25.0084 21.0133 25.6271 21.184 26.3951 21.184Z" fill="#5BB5A2"/>
<path d="M37.5038 24V8.12796H41.1198L41.4398 10.816C41.9305 9.87729 42.6345 9.13063 43.5518 8.57596C44.4905 8.02129 45.5892 7.74396 46.8478 7.74396C48.8105 7.74396 50.3358 8.36263 51.4238 9.59996C52.5118 10.8373 53.0558 12.6506 53.0558 15.04V24H48.9598V15.424C48.9598 14.0586 48.6825 13.0133 48.1278 12.288C47.5732 11.5626 46.7092 11.2 45.5358 11.2C44.3838 11.2 43.4345 11.6053 42.6878 12.416C41.9625 13.2266 41.5998 14.3573 41.5998 15.808V24H37.5038Z" fill="#5BB5A2"/>
<path d="M68.6206 31.04V21.728C68.1086 22.432 67.4259 23.0506 66.5726 23.584C65.7406 24.1173 64.6526 24.384 63.3086 24.384C61.8152 24.384 60.4819 24.0213 59.3086 23.296C58.1352 22.5706 57.2072 21.5786 56.5246 20.32C55.8419 19.0613 55.5006 17.632 55.5006 16.032C55.5006 14.432 55.8419 13.0133 56.5246 11.776C57.2072 10.5173 58.1352 9.53596 59.3086 8.83196C60.4819 8.10663 61.8152 7.74396 63.3086 7.74396C64.5032 7.74396 65.5486 7.96796 66.4446 8.41596C67.3406 8.86396 68.0659 9.49329 68.6206 10.304L69.0686 8.12796H72.7166V31.04H68.6206ZM64.1726 20.8C65.4952 20.8 66.5726 20.3626 67.4046 19.488C68.2579 18.592 68.6846 17.4506 68.6846 16.064C68.6846 14.6773 68.2579 13.5466 67.4046 12.672C66.5726 11.776 65.4952 11.328 64.1726 11.328C62.8712 11.328 61.7939 11.7653 60.9406 12.64C60.0872 13.5146 59.6606 14.6453 59.6606 16.032C59.6606 17.4186 60.0872 18.56 60.9406 19.456C61.7939 20.352 62.8712 20.8 64.1726 20.8Z" fill="#5BB5A2"/>
<path d="M81.8796 24.384C79.8956 24.384 78.3596 23.7653 77.2716 22.528C76.2049 21.2906 75.6716 19.4773 75.6716 17.088V8.12796H79.7356V16.704C79.7356 18.0693 80.0129 19.1146 80.5676 19.84C81.1222 20.5653 81.9969 20.928 83.1916 20.928C84.3222 20.928 85.2502 20.5226 85.9756 19.712C86.7222 18.9013 87.0956 17.7706 87.0956 16.32V8.12796H91.1916V24H87.5756L87.2556 21.312C86.7649 22.2506 86.0502 22.9973 85.1116 23.552C84.1942 24.1066 83.1169 24.384 81.8796 24.384Z" fill="#5BB5A2"/>
<path d="M102.148 24.384C100.548 24.384 99.1297 24.0426 97.8923 23.36C96.655 22.6773 95.6843 21.7173 94.9803 20.48C94.2763 19.2426 93.9243 17.8133 93.9243 16.192C93.9243 14.5493 94.2657 13.088 94.9483 11.808C95.6523 10.528 96.6123 9.53596 97.8283 8.83196C99.0657 8.10663 100.516 7.74396 102.18 7.74396C103.738 7.74396 105.114 8.08529 106.308 8.76796C107.503 9.45063 108.431 10.3893 109.092 11.584C109.775 12.7573 110.116 14.0693 110.116 15.52C110.116 15.7546 110.106 16 110.084 16.256C110.084 16.512 110.074 16.7786 110.052 17.056H97.9883C98.0737 18.2933 98.5003 19.264 99.2683 19.968C100.058 20.672 101.007 21.024 102.116 21.024C102.948 21.024 103.642 20.8426 104.196 20.48C104.772 20.096 105.199 19.6053 105.476 19.008H109.636C109.338 20.0106 108.836 20.928 108.132 21.76C107.45 22.5706 106.596 23.2106 105.572 23.68C104.57 24.1493 103.428 24.384 102.148 24.384ZM102.18 11.072C101.178 11.072 100.292 11.36 99.5243 11.936C98.7563 12.4906 98.2657 13.344 98.0523 14.496H105.956C105.892 13.4506 105.508 12.6186 104.804 12C104.1 11.3813 103.226 11.072 102.18 11.072Z" fill="#5BB5A2"/>
<path d="M120.313 24.384C118.713 24.384 117.295 24.0426 116.057 23.36C114.82 22.6773 113.849 21.7173 113.145 20.48C112.441 19.2426 112.089 17.8133 112.089 16.192C112.089 14.5493 112.431 13.088 113.113 11.808C113.817 10.528 114.777 9.53596 115.993 8.83196C117.231 8.10663 118.681 7.74396 120.345 7.74396C121.903 7.74396 123.279 8.08529 124.473 8.76796C125.668 9.45063 126.596 10.3893 127.257 11.584C127.94 12.7573 128.281 14.0693 128.281 15.52C128.281 15.7546 128.271 16 128.249 16.256C128.249 16.512 128.239 16.7786 128.217 17.056H116.153C116.239 18.2933 116.665 19.264 117.433 19.968C118.223 20.672 119.172 21.024 120.281 21.024C121.113 21.024 121.807 20.8426 122.361 20.48C122.937 20.096 123.364 19.6053 123.641 19.008H127.801C127.503 20.0106 127.001 20.928 126.297 21.76C125.615 22.5706 124.761 23.2106 123.737 23.68C122.735 24.1493 121.593 24.384 120.313 24.384ZM120.345 11.072C119.343 11.072 118.457 11.36 117.689 11.936C116.921 12.4906 116.431 13.344 116.217 14.496H124.121C124.057 13.4506 123.673 12.6186 122.969 12C122.265 11.3813 121.391 11.072 120.345 11.072Z" fill="#5BB5A2"/>
<path d="M132.526 24.224C131.78 24.224 131.161 23.9893 130.67 23.52C130.201 23.0506 129.966 22.4853 129.966 21.824C129.966 21.1413 130.201 20.5653 130.67 20.096C131.161 19.6266 131.78 19.392 132.526 19.392C133.273 19.392 133.881 19.6266 134.35 20.096C134.841 20.5653 135.086 21.1413 135.086 21.824C135.086 22.4853 134.841 23.0506 134.35 23.52C133.881 23.9893 133.273 24.224 132.526 24.224Z" fill="#5BB5A2"/>
</svg>
